<svg width="622" height="175" viewBox="0 0 622 175" fill="none" xmlns="http://www.w3.org/2000/svg">
<rect width="622" height="175" fill="#10161D"/>
<rect x="33.5" y="29.5" width="117.065" height="110" rx="50.5" fill="#D9D9D9" stroke="black"/>
<rect x="492" y="35" width="108" height="109" rx="50" fill="#D9D9D9"/>
<rect x="342" y="35" width="108" height="109" rx="50" fill="#D9D9D9"/>
<rect x="192" y="30" width="108" height="109" rx="50" fill="#D9D9D9"/>
<g clip-path="url(#clip0_4_113)">
<path d="M115.933 85.2146C110.7 76.8846 92.0667 76.4354 96.5667 64.3283C96.9 63.43 95.3333 62.7358 94.0667 63.2054C81.9666 67.5746 73.2666 76.3333 80.5666 87.8075C81.1666 88.7467 79.3666 89.6246 78.0666 89.0121C72.0333 86.215 71.4 82.1929 71.9333 79.3142C72.1333 78.2525 69.8666 77.7421 68.9 78.62C66.6333 80.7433 64.3333 84.1733 64.3333 89.3388C65.6 100.772 81.3666 104.284 87.0333 104.733C95.1333 105.366 103.9 104.447 110.2 100.915C117.133 96.9746 119.667 90.6863 115.933 85.2146ZM85 95.4842C89.8 94.7696 92.2666 92.6463 92.9333 90.7679C94.0333 87.8483 89.7333 84.99 92.6333 80.3758C93.7333 84.1938 103.533 86.5825 103.533 90.7475C103.8 95.9129 94.6666 100.343 85 95.4842Z" fill="black"/>
</g>
<path d="M219 73.5312C219 75.5117 222.321 77.1875 226.25 77.1875C228.402 77.1875 230.349 76.6781 231.688 75.8973C233.026 76.6781 234.973 77.1875 237.125 77.1875C239.277 77.1875 241.224 76.6781 242.562 75.8973C243.901 76.6781 245.848 77.1875 248 77.1875C250.152 77.1875 252.099 76.6781 253.438 75.8973C254.776 76.6781 256.723 77.1875 258.875 77.1875C261.027 77.1875 262.974 76.6781 264.312 75.8973C265.651 76.6781 267.598 77.1875 269.75 77.1875C273.679 77.1875 277 75.5117 277 73.5312H273.375C273.375 73.9026 272.001 74.75 269.75 74.75C267.534 74.75 266.125 73.8931 266.125 73.5312H262.5C262.5 73.9026 261.126 74.75 258.875 74.75C256.659 74.75 255.25 73.8931 255.25 73.5312H251.625C251.625 73.9026 250.251 74.75 248 74.75C245.784 74.75 244.375 73.8931 244.375 73.5312H240.75C240.75 73.9026 239.384 74.75 237.125 74.75C234.909 74.75 233.5 73.8931 233.5 73.5312H229.875C229.875 73.9026 228.509 74.75 226.25 74.75C224.034 74.75 222.625 73.8931 222.625 73.5312H219ZM219 83.2812C219 85.2617 222.321 86.9375 226.25 86.9375C228.402 86.9375 230.349 86.4281 231.688 85.6473C233.026 86.4281 234.973 86.9375 237.125 86.9375C239.277 86.9375 241.224 86.4281 242.562 85.6473C243.901 86.4281 245.848 86.9375 248 86.9375C250.152 86.9375 252.099 86.4281 253.438 85.6473C254.776 86.4281 256.723 86.9375 258.875 86.9375C261.027 86.9375 262.974 86.4281 264.312 85.6473C265.651 86.4281 267.598 86.9375 269.75 86.9375C273.679 86.9375 277 85.2617 277 83.2812H273.375C273.375 83.6526 272.001 84.5 269.75 84.5C267.534 84.5 266.125 83.6431 266.125 83.2812H262.5C262.5 83.6526 261.126 84.5 258.875 84.5C256.659 84.5 255.25 83.6431 255.25 83.2812H251.625C251.625 83.6526 250.251 84.5 248 84.5C245.784 84.5 244.375 83.6431 244.375 83.2812H240.75C240.75 83.6526 239.384 84.5 237.125 84.5C234.909 84.5 233.5 83.6431 233.5 83.2812H229.875C229.875 83.6526 228.509 84.5 226.25 84.5C224.034 84.5 222.625 83.6431 222.625 83.2812H219ZM219 93.0312C219 95.0117 222.321 96.6875 226.25 96.6875C228.402 96.6875 230.349 96.1781 231.688 95.3973C233.026 96.1781 234.973 96.6875 237.125 96.6875C239.277 96.6875 241.224 96.1781 242.562 95.3973C243.901 96.1781 245.848 96.6875 248 96.6875C250.152 96.6875 252.099 96.1781 253.438 95.3973C254.776 96.1781 256.723 96.6875 258.875 96.6875C261.027 96.6875 262.974 96.1781 264.312 95.3973C265.651 96.1781 267.598 96.6875 269.75 96.6875C273.679 96.6875 277 95.0117 277 93.0312H273.375C273.375 93.4026 272.001 94.25 269.75 94.25C267.534 94.25 266.125 93.3931 266.125 93.0312H262.5C262.5 93.4026 261.126 94.25 258.875 94.25C256.659 94.25 255.25 93.3931 255.25 93.0312H251.625C251.625 93.4026 250.251 94.25 248 94.25C245.784 94.25 244.375 93.3931 244.375 93.0312H240.75C240.75 93.4026 239.384 94.25 237.125 94.25C234.909 94.25 233.5 93.3931 233.5 93.0312H229.875C229.875 93.4026 228.509 94.25 226.25 94.25C224.034 94.25 222.625 93.3931 222.625 93.0312H219Z" fill="black"/>
<g clip-path="url(#clip1_4_113)">
<rect width="64" height="38" transform="translate(364 66)" fill="#D9D9D9"/>
<path d="M364 66H428V104H364V66Z" fill="#D9D9D9"/>
<path d="M384.854 67.4487C381.241 67.4505 377.139 68.6634 374.103 71.5427C382.95 69.7332 382.842 72.9585 390.356 74.285C391.954 75.6388 393.045 77.3344 393.787 79.6447C393.919 80.323 393.965 81.05 393.974 81.8028C393.994 83.5492 393.757 85.4192 393.59 86.9773V86.9779C393.539 87.4961 393.962 88.3124 394.75 89.1573C395.093 89.5251 395.506 89.8978 395.948 90.2631C396.316 85.863 396.079 81.8669 397.357 78.2819C398.247 76.8411 399.447 75.6315 400.961 74.6336C409.411 73.5348 408.354 70.2913 418.582 72.1742C414.506 69.2796 409.559 68.0853 405.537 68.1281C400.048 68.1864 396.286 70.5497 398.819 74.0399C397.395 75.0513 396.227 76.2295 395.336 77.5727C394.652 76.1509 393.764 74.937 392.642 73.8838C394.438 70.0774 390.179 67.4464 384.854 67.4487H384.854ZM389.258 80.0598L379.822 80.191L371.145 87.241L380.161 92.23L391.41 91.586L380.28 94.2778L373.107 90.2037L377.82 96.4496L391.621 98.5883L379.198 98.2768L379.894 99.1989L400.771 102.727L416.75 97.4665V97.4658L412.79 94.1173L400.938 97.2618L413.33 91.9094L416.842 95.0226L417.065 89.1453L408.747 83.3378L401.792 82.402L398.741 85.1069L399.61 87.0481L398.441 88.1465C398.375 89.314 398.289 90.5211 398.143 91.766L401.043 94.1799L396.531 97.2756L398.47 99.6403L393.831 97.0081L398.074 94.0971L396.688 92.943L396.078 92.552C394.826 91.7494 393.613 90.8009 392.707 89.8295C392.094 89.1732 391.605 88.5085 391.382 87.8467L389.117 85.135L391.034 82.1648L391.103 82.1613L389.258 80.0598V80.0598Z" fill="black"/>
</g>
<path d="M525.625 86.2188C524.879 86.2188 524.164 86.0459 523.636 85.7382C523.109 85.4305 522.812 85.0132 522.812 84.5781C522.812 84.143 523.109 83.7257 523.636 83.418C524.164 83.1104 524.879 82.9375 525.625 82.9375H548.125C548.871 82.9375 549.586 82.7647 550.114 82.457C550.641 82.1493 550.938 81.732 550.938 81.2969C550.938 80.8618 550.641 80.4445 550.114 80.1368C549.586 79.8291 548.871 79.6563 548.125 79.6563C547.729 79.6551 547.337 79.7033 546.975 79.7977C546.613 79.892 546.291 80.0304 546.028 80.2035C545.531 80.5278 544.833 80.7234 544.088 80.7475C543.343 80.7716 542.612 80.6221 542.057 80.3319C541.501 80.0417 541.165 79.6346 541.124 79.2002C541.083 78.7657 541.339 78.3395 541.837 78.0152C542.775 77.4034 543.961 76.9381 545.286 76.6619C546.611 76.3857 548.034 76.3073 549.425 76.4337C550.815 76.5602 552.13 76.8876 553.248 77.3861C554.366 77.8845 555.253 78.5383 555.828 79.2877C556.402 80.0372 556.646 80.8586 556.537 81.6771C556.429 82.4956 555.971 83.2853 555.205 83.9742C554.439 84.6631 553.391 85.2293 552.154 85.6214C550.917 86.0134 549.532 86.2187 548.125 86.2188H525.625ZM568.75 81.8438C567.563 81.8442 566.39 81.9905 565.306 82.2731C564.223 82.5557 563.253 82.9683 562.462 83.484C561.964 83.8082 561.708 84.2344 561.749 84.6689C561.79 85.1034 562.126 85.5105 562.682 85.8007C563.237 86.0908 563.968 86.2403 564.713 86.2163C565.458 86.1922 566.156 85.9965 566.653 85.6723C566.916 85.4992 567.238 85.3608 567.6 85.2664C567.962 85.172 568.354 85.1238 568.75 85.125C569.496 85.125 570.211 85.2979 570.739 85.6055C571.266 85.9132 571.562 86.3305 571.562 86.7656C571.562 87.2007 571.266 87.618 570.739 87.9257C570.211 88.2334 569.496 88.4063 568.75 88.4063H527.5C526.754 88.4063 526.039 88.5791 525.511 88.8868C524.984 89.1945 524.688 89.6118 524.688 90.0469C524.688 90.482 524.984 90.8993 525.511 91.207C526.039 91.5146 526.754 91.6875 527.5 91.6875H568.75C570.988 91.6875 573.134 91.1689 574.716 90.2459C576.299 89.3229 577.188 88.071 577.188 86.7656C577.188 85.4603 576.299 84.2084 574.716 83.2853C573.134 82.3623 570.988 81.8438 568.75 81.8438ZM555.625 93.875H529.375C528.629 93.875 527.914 94.0479 527.386 94.3555C526.859 94.6632 526.562 95.0805 526.562 95.5156C526.562 95.9507 526.859 96.368 527.386 96.6757C527.914 96.9834 528.629 97.1562 529.375 97.1562H555.625C556.371 97.1562 557.086 97.3291 557.614 97.6368C558.141 97.9445 558.438 98.3618 558.438 98.7969C558.438 99.232 558.141 99.6493 557.614 99.957C557.086 100.265 556.371 100.438 555.625 100.438C555.229 100.439 554.837 100.39 554.475 100.296C554.113 100.202 553.791 100.063 553.528 99.8902C553.031 99.566 552.333 99.3703 551.588 99.3462C550.843 99.3222 550.112 99.4717 549.557 99.7619C549.001 100.052 548.665 100.459 548.624 100.894C548.583 101.328 548.839 101.754 549.337 102.079C550.275 102.69 551.461 103.156 552.786 103.432C554.111 103.708 555.534 103.787 556.925 103.66C558.315 103.534 559.63 103.206 560.748 102.708C561.866 102.209 562.753 101.555 563.328 100.806C563.902 100.057 564.146 99.2352 564.037 98.4166C563.929 97.5981 563.471 96.8085 562.705 96.1196C561.939 95.4307 560.891 94.8644 559.654 94.4724C558.417 94.0804 557.032 93.875 555.625 93.875Z" fill="black"/>
<defs>
<clipPath id="clip0_4_113">
<rect width="80" height="49" fill="white" transform="translate(51 60)"/>
</clipPath>
<clipPath id="clip1_4_113">
<rect width="64" height="38" fill="white" transform="translate(364 66)"/>
</clipPath>
</defs>
</svg>
